<mxfile host="app.diagrams.net" modified="2023-10-17T17:23:55.397Z" agent="Mozilla/5.0 (Windows NT 10.0; Win64; x64) AppleWebKit/537.36 (KHTML, like Gecko) Chrome/117.0.0.0 Safari/537.36" etag="wWJPXNA1sihk-QLfaGj_" version="22.0.4" type="device">
  <diagram name="Page-1" id="mg95jLMLw5ql-1a_2tGl">
    <mxGraphModel dx="2924" dy="750" grid="1" gridSize="10" guides="1" tooltips="1" connect="1" arrows="1" fold="1" page="1" pageScale="1" pageWidth="850" pageHeight="1100" math="0" shadow="0">
      <root>
        <mxCell id="0" />
        <mxCell id="1" parent="0" />
        <mxCell id="VwrZtHJSBFpIykKKH3eD-1" value="" style="rounded=0;whiteSpace=wrap;html=1;" parent="1" vertex="1">
          <mxGeometry x="-40" y="440" width="1440" height="770" as="geometry" />
        </mxCell>
        <mxCell id="VwrZtHJSBFpIykKKH3eD-59" value="" style="image;aspect=fixed;html=1;points=[];align=center;fontSize=12;image=img/lib/azure2/containers/Container_Registries.svg;" parent="1" vertex="1">
          <mxGeometry x="152.49" y="625.5" width="95.03" height="85.25" as="geometry" />
        </mxCell>
        <mxCell id="VwrZtHJSBFpIykKKH3eD-78" style="edgeStyle=orthogonalEdgeStyle;rounded=0;orthogonalLoop=1;jettySize=auto;html=1;" parent="1" source="VwrZtHJSBFpIykKKH3eD-60" target="VwrZtHJSBFpIykKKH3eD-80" edge="1">
          <mxGeometry relative="1" as="geometry">
            <mxPoint x="200" y="834.5" as="targetPoint" />
          </mxGeometry>
        </mxCell>
        <mxCell id="VwrZtHJSBFpIykKKH3eD-60" value="Azure Container Registry" style="text;html=1;strokeColor=none;fillColor=none;align=center;verticalAlign=middle;whiteSpace=wrap;rounded=0;" parent="1" vertex="1">
          <mxGeometry x="121.25" y="724.5" width="157.51" height="30" as="geometry" />
        </mxCell>
        <mxCell id="VwrZtHJSBFpIykKKH3eD-80" value="" style="rounded=0;whiteSpace=wrap;html=1;" parent="1" vertex="1">
          <mxGeometry x="10" y="854.5" width="380" height="240" as="geometry" />
        </mxCell>
        <mxCell id="VwrZtHJSBFpIykKKH3eD-81" value="" style="sketch=0;outlineConnect=0;fontColor=#232F3E;gradientColor=none;fillColor=#8C4FFF;strokeColor=none;dashed=0;verticalLabelPosition=bottom;verticalAlign=top;align=center;html=1;fontSize=12;fontStyle=0;aspect=fixed;pointerEvents=1;shape=mxgraph.aws4.hdfs_cluster;" parent="1" vertex="1">
          <mxGeometry x="146" y="907" width="108" height="108" as="geometry" />
        </mxCell>
        <mxCell id="VwrZtHJSBFpIykKKH3eD-82" value="Azure Kubenetes Cluster" style="text;html=1;strokeColor=none;fillColor=none;align=center;verticalAlign=middle;whiteSpace=wrap;rounded=0;" parent="1" vertex="1">
          <mxGeometry x="127.5" y="1027" width="145" height="30" as="geometry" />
        </mxCell>
        <mxCell id="VwrZtHJSBFpIykKKH3eD-83" value="Azure Vnet" style="text;html=1;strokeColor=none;fillColor=none;align=center;verticalAlign=middle;whiteSpace=wrap;rounded=0;" parent="1" vertex="1">
          <mxGeometry x="10" y="877" width="70" height="30" as="geometry" />
        </mxCell>
        <mxCell id="VwrZtHJSBFpIykKKH3eD-84" value="" style="image;aspect=fixed;html=1;points=[];align=center;fontSize=12;image=img/lib/azure2/networking/Virtual_Networks.svg;" parent="1" vertex="1">
          <mxGeometry x="24.060000000000002" y="854.5" width="41.88" height="25" as="geometry" />
        </mxCell>
        <mxCell id="bJyVea2yUifCiPllGoes-1" value="" style="rounded=0;whiteSpace=wrap;html=1;glass=0;shadow=0;" vertex="1" parent="1">
          <mxGeometry x="480" y="532.5" width="690" height="655" as="geometry" />
        </mxCell>
        <mxCell id="bJyVea2yUifCiPllGoes-2" value="Azure Vnet" style="text;html=1;strokeColor=none;fillColor=none;align=center;verticalAlign=middle;whiteSpace=wrap;rounded=0;" vertex="1" parent="1">
          <mxGeometry x="480" y="552.5" width="70" height="32.5" as="geometry" />
        </mxCell>
        <mxCell id="bJyVea2yUifCiPllGoes-3" value="" style="image;aspect=fixed;html=1;points=[];align=center;fontSize=12;image=img/lib/azure2/networking/Virtual_Networks.svg;" vertex="1" parent="1">
          <mxGeometry x="494.05999999999995" y="532.5" width="41.88" height="25" as="geometry" />
        </mxCell>
        <mxCell id="bJyVea2yUifCiPllGoes-57" style="edgeStyle=orthogonalEdgeStyle;rounded=0;orthogonalLoop=1;jettySize=auto;html=1;" edge="1" parent="1" source="bJyVea2yUifCiPllGoes-5" target="bJyVea2yUifCiPllGoes-6">
          <mxGeometry relative="1" as="geometry" />
        </mxCell>
        <mxCell id="bJyVea2yUifCiPllGoes-5" value="" style="verticalLabelPosition=bottom;html=1;verticalAlign=top;align=center;strokeColor=none;fillColor=#00BEF2;shape=mxgraph.azure.virtual_machine;" vertex="1" parent="1">
          <mxGeometry x="773" y="1057" width="104" height="78" as="geometry" />
        </mxCell>
        <mxCell id="bJyVea2yUifCiPllGoes-6" value="" style="image;aspect=fixed;html=1;points=[];align=center;fontSize=12;image=img/lib/azure2/security/Key_Vaults.svg;" vertex="1" parent="1">
          <mxGeometry x="1030" y="1062" width="68" height="68" as="geometry" />
        </mxCell>
        <mxCell id="bJyVea2yUifCiPllGoes-7" value="" style="image;aspect=fixed;html=1;points=[];align=center;fontSize=12;image=img/lib/azure2/general/Storage_Container.svg;" vertex="1" parent="1">
          <mxGeometry x="1240" y="1051" width="110.77" height="90" as="geometry" />
        </mxCell>
        <mxCell id="bJyVea2yUifCiPllGoes-25" style="edgeStyle=orthogonalEdgeStyle;rounded=0;orthogonalLoop=1;jettySize=auto;html=1;entryX=0.5;entryY=1;entryDx=0;entryDy=0;" edge="1" parent="1" source="bJyVea2yUifCiPllGoes-10" target="bJyVea2yUifCiPllGoes-19">
          <mxGeometry relative="1" as="geometry" />
        </mxCell>
        <mxCell id="bJyVea2yUifCiPllGoes-26" style="edgeStyle=orthogonalEdgeStyle;rounded=0;orthogonalLoop=1;jettySize=auto;html=1;entryX=0.5;entryY=1;entryDx=0;entryDy=0;" edge="1" parent="1" source="bJyVea2yUifCiPllGoes-10" target="bJyVea2yUifCiPllGoes-21">
          <mxGeometry relative="1" as="geometry" />
        </mxCell>
        <mxCell id="bJyVea2yUifCiPllGoes-10" value="" style="sketch=0;points=[[0,0,0],[0.25,0,0],[0.5,0,0],[0.75,0,0],[1,0,0],[0,1,0],[0.25,1,0],[0.5,1,0],[0.75,1,0],[1,1,0],[0,0.25,0],[0,0.5,0],[0,0.75,0],[1,0.25,0],[1,0.5,0],[1,0.75,0]];outlineConnect=0;fontColor=#232F3E;fillColor=#ED7100;strokeColor=#ffffff;dashed=0;verticalLabelPosition=bottom;verticalAlign=top;align=center;html=1;fontSize=12;fontStyle=0;aspect=fixed;shape=mxgraph.aws4.resourceIcon;resIcon=mxgraph.aws4.containers;" vertex="1" parent="1">
          <mxGeometry x="787.0899999999999" y="812.5" width="80" height="80" as="geometry" />
        </mxCell>
        <mxCell id="bJyVea2yUifCiPllGoes-55" style="edgeStyle=orthogonalEdgeStyle;rounded=0;orthogonalLoop=1;jettySize=auto;html=1;entryX=0.5;entryY=1;entryDx=0;entryDy=0;" edge="1" parent="1" source="bJyVea2yUifCiPllGoes-14" target="bJyVea2yUifCiPllGoes-17">
          <mxGeometry relative="1" as="geometry" />
        </mxCell>
        <mxCell id="bJyVea2yUifCiPllGoes-14" value="" style="shape=image;html=1;verticalAlign=top;verticalLabelPosition=bottom;labelBackgroundColor=#ffffff;imageAspect=0;aspect=fixed;image=https://cdn0.iconfinder.com/data/icons/social-media-2104/24/social_media_social_media_logo_docker-128.png" vertex="1" parent="1">
          <mxGeometry x="795.09" y="980" width="64" height="64" as="geometry" />
        </mxCell>
        <mxCell id="bJyVea2yUifCiPllGoes-17" value="Zookeeper" style="text;html=1;strokeColor=none;fillColor=none;align=center;verticalAlign=middle;whiteSpace=wrap;rounded=0;" vertex="1" parent="1">
          <mxGeometry x="797.0899999999999" y="892.5" width="60" height="30" as="geometry" />
        </mxCell>
        <mxCell id="bJyVea2yUifCiPllGoes-18" value="" style="sketch=0;points=[[0,0,0],[0.25,0,0],[0.5,0,0],[0.75,0,0],[1,0,0],[0,1,0],[0.25,1,0],[0.5,1,0],[0.75,1,0],[1,1,0],[0,0.25,0],[0,0.5,0],[0,0.75,0],[1,0.25,0],[1,0.5,0],[1,0.75,0]];outlineConnect=0;fontColor=#232F3E;fillColor=#ED7100;strokeColor=#ffffff;dashed=0;verticalLabelPosition=bottom;verticalAlign=top;align=center;html=1;fontSize=12;fontStyle=0;aspect=fixed;shape=mxgraph.aws4.resourceIcon;resIcon=mxgraph.aws4.containers;" vertex="1" parent="1">
          <mxGeometry x="667.0899999999999" y="692.5" width="80" height="80" as="geometry" />
        </mxCell>
        <mxCell id="bJyVea2yUifCiPllGoes-19" value="Broker" style="text;html=1;strokeColor=none;fillColor=none;align=center;verticalAlign=middle;whiteSpace=wrap;rounded=0;" vertex="1" parent="1">
          <mxGeometry x="662.0899999999999" y="772.5" width="90" height="30" as="geometry" />
        </mxCell>
        <mxCell id="bJyVea2yUifCiPllGoes-20" value="" style="sketch=0;points=[[0,0,0],[0.25,0,0],[0.5,0,0],[0.75,0,0],[1,0,0],[0,1,0],[0.25,1,0],[0.5,1,0],[0.75,1,0],[1,1,0],[0,0.25,0],[0,0.5,0],[0,0.75,0],[1,0.25,0],[1,0.5,0],[1,0.75,0]];outlineConnect=0;fontColor=#232F3E;fillColor=#ED7100;strokeColor=#ffffff;dashed=0;verticalLabelPosition=bottom;verticalAlign=top;align=center;html=1;fontSize=12;fontStyle=0;aspect=fixed;shape=mxgraph.aws4.resourceIcon;resIcon=mxgraph.aws4.containers;" vertex="1" parent="1">
          <mxGeometry x="907.0899999999999" y="692.5" width="80" height="80" as="geometry" />
        </mxCell>
        <mxCell id="bJyVea2yUifCiPllGoes-21" value="Schema Registry" style="text;html=1;strokeColor=none;fillColor=none;align=center;verticalAlign=middle;whiteSpace=wrap;rounded=0;" vertex="1" parent="1">
          <mxGeometry x="895.64" y="772.5" width="102.91" height="30" as="geometry" />
        </mxCell>
        <mxCell id="bJyVea2yUifCiPllGoes-28" style="edgeStyle=orthogonalEdgeStyle;rounded=0;orthogonalLoop=1;jettySize=auto;html=1;" edge="1" parent="1" source="bJyVea2yUifCiPllGoes-23" target="bJyVea2yUifCiPllGoes-18">
          <mxGeometry relative="1" as="geometry" />
        </mxCell>
        <mxCell id="bJyVea2yUifCiPllGoes-23" value="" style="sketch=0;points=[[0,0,0],[0.25,0,0],[0.5,0,0],[0.75,0,0],[1,0,0],[0,1,0],[0.25,1,0],[0.5,1,0],[0.75,1,0],[1,1,0],[0,0.25,0],[0,0.5,0],[0,0.75,0],[1,0.25,0],[1,0.5,0],[1,0.75,0]];outlineConnect=0;fontColor=#232F3E;fillColor=#8C4FFF;strokeColor=#ffffff;dashed=0;verticalLabelPosition=bottom;verticalAlign=top;align=center;html=1;fontSize=12;fontStyle=0;aspect=fixed;shape=mxgraph.aws4.resourceIcon;resIcon=mxgraph.aws4.managed_streaming_for_kafka;" vertex="1" parent="1">
          <mxGeometry x="788.0899999999999" y="572.5" width="78" height="78" as="geometry" />
        </mxCell>
        <mxCell id="bJyVea2yUifCiPllGoes-24" value="Kafka&lt;br&gt;Control Center UI" style="text;html=1;strokeColor=none;fillColor=none;align=center;verticalAlign=middle;whiteSpace=wrap;rounded=0;" vertex="1" parent="1">
          <mxGeometry x="782.0899999999999" y="662.5" width="90" height="30" as="geometry" />
        </mxCell>
        <mxCell id="bJyVea2yUifCiPllGoes-29" style="edgeStyle=orthogonalEdgeStyle;rounded=0;orthogonalLoop=1;jettySize=auto;html=1;entryX=0.5;entryY=0;entryDx=0;entryDy=0;entryPerimeter=0;" edge="1" parent="1" source="bJyVea2yUifCiPllGoes-23" target="bJyVea2yUifCiPllGoes-20">
          <mxGeometry relative="1" as="geometry" />
        </mxCell>
        <mxCell id="bJyVea2yUifCiPllGoes-54" style="edgeStyle=orthogonalEdgeStyle;rounded=0;orthogonalLoop=1;jettySize=auto;html=1;entryX=0;entryY=0.5;entryDx=0;entryDy=0;entryPerimeter=0;" edge="1" parent="1" source="VwrZtHJSBFpIykKKH3eD-81" target="bJyVea2yUifCiPllGoes-18">
          <mxGeometry relative="1" as="geometry" />
        </mxCell>
        <mxCell id="bJyVea2yUifCiPllGoes-58" style="edgeStyle=orthogonalEdgeStyle;rounded=0;orthogonalLoop=1;jettySize=auto;html=1;entryX=-0.036;entryY=0.5;entryDx=0;entryDy=0;entryPerimeter=0;" edge="1" parent="1" source="bJyVea2yUifCiPllGoes-6" target="bJyVea2yUifCiPllGoes-7">
          <mxGeometry relative="1" as="geometry" />
        </mxCell>
        <mxCell id="bJyVea2yUifCiPllGoes-59" value="Azure Key Vault" style="text;html=1;strokeColor=none;fillColor=none;align=center;verticalAlign=middle;whiteSpace=wrap;rounded=0;" vertex="1" parent="1">
          <mxGeometry x="1016" y="1135" width="96" height="30" as="geometry" />
        </mxCell>
        <mxCell id="bJyVea2yUifCiPllGoes-60" value="Azure Storage" style="text;html=1;strokeColor=none;fillColor=none;align=center;verticalAlign=middle;whiteSpace=wrap;rounded=0;" vertex="1" parent="1">
          <mxGeometry x="1252.69" y="1141" width="85.39" height="30" as="geometry" />
        </mxCell>
        <mxCell id="bJyVea2yUifCiPllGoes-63" value="" style="verticalLabelPosition=bottom;html=1;verticalAlign=top;align=center;strokeColor=none;fillColor=#00BEF2;shape=mxgraph.azure.cloud;" vertex="1" parent="1">
          <mxGeometry x="655" y="450" width="50" height="32.5" as="geometry" />
        </mxCell>
        <mxCell id="bJyVea2yUifCiPllGoes-64" value="Azure" style="text;html=1;strokeColor=none;fillColor=none;align=center;verticalAlign=middle;whiteSpace=wrap;rounded=0;" vertex="1" parent="1">
          <mxGeometry x="650" y="482.5" width="60" height="30" as="geometry" />
        </mxCell>
        <mxCell id="bJyVea2yUifCiPllGoes-65" value="&lt;h1&gt;Kafka Cluster&lt;/h1&gt;&lt;p&gt;This whole cluster is automated by ARM template, It creates VM in azure and pulls the secrets from Key vaults to create kafka cluster from scratch&lt;/p&gt;" style="text;html=1;strokeColor=none;fillColor=none;spacing=5;spacingTop=-20;whiteSpace=wrap;overflow=hidden;rounded=0;" vertex="1" parent="1">
          <mxGeometry x="480" y="1062" width="190" height="120" as="geometry" />
        </mxCell>
        <mxCell id="bJyVea2yUifCiPllGoes-67" value="Containers" style="text;html=1;strokeColor=none;fillColor=none;align=center;verticalAlign=middle;whiteSpace=wrap;rounded=0;fontStyle=3" vertex="1" parent="1">
          <mxGeometry x="797.09" y="740" width="60" height="30" as="geometry" />
        </mxCell>
      </root>
    </mxGraphModel>
  </diagram>
</mxfile>
